# xmcd
#
# Track frame offsets:
#	150
#	13188
#	23388
#	34209
#	44425
#	54854
#	64719
#	74496
#	85286
#	97405
#	112015
#	122389
#	136004
#	143822
#	155437
#	166803
#	180728
#	192798
#	204807
#	213869
#	224969
#	236832
#	250413
#	261869
#	274181
#	284338
#	295007
#	304840
#
# Disc length: 4224 seconds
# Revision: 0
# Processed by: cddbd v1.5.2PL0 Copyright (c) Steve Scherf et al.
# Submitted via: dBpowerAMP V12.0
#
DISCID=a3107e1c
DTITLE=Various Artist - The Odyssey - CD4 - Blackpool Mecca to Wigan Casino
DYEAR=2007
DGENRE=R&B
TTITLE0=The Steve Karmen Big Band Ft Jimmy Radcliffe - Breakaway (Pt 1)
TTITLE1=Dana Valery - You Don't Know Where Your Interest Lies
TTITLE2=Bobby Paris - Night Owl
TTITLE3=Al Wilson - Help Me
TTITLE4=The Mike Post Coalition - Afternoon Of The Rhino
TTITLE5=Gloria Jones - Tainted Love
TTITLE6=Dean Courtney - I'll Always Need You
TTITLE7=Carl Douglas - Serving A Sentence Of Life
TTITLE8=The Casualeers - Dance Dance Dance
TTITLE9=Frankie Valli - The Night
TTITLE10=Beverly Ann - You've Got Your Mind On Other Things
TTITLE11=Derek and Ray - Interplay
TTITLE12=Don Ray - Born A Loser
TTITLE13=Paul Anka - When We Get There
TTITLE14=Ronnie and Robin - As Long As You Love Me
TTITLE15=Doni Burdick - Bari Track
TTITLE16=The Colcanos - (It's Against) The Laws Of Love
TTITLE17=Christine Cooper - Heartaches Away My Boy
TTITLE18=Adam's Apples - Don't Take It Out On This World
TTITLE19=Detroit Soul - All Of My Life
TTITLE20=Yvonne Baker - You Didn't Say A Word
TTITLE21=The Contours - Baby Hit And Run
TTITLE22=Frank Wilson - Do I Love You
TTITLE23=The Checkerboard Squares - Double Cookin'
TTITLE24=Vickie Baines - Country Girl
TTITLE25=Bunny Sigler - Girl Don't Make Me Wait
TTITLE26=Johnny Caswell - You Don't Love Me Anymore
TTITLE27=Dean Parrish - I'm On My Way
EXTD=
EXTT0=
EXTT1=
EXTT2=
EXTT3=
EXTT4=
EXTT5=
EXTT6=
EXTT7=
EXTT8=
EXTT9=
EXTT10=
EXTT11=
EXTT12=
EXTT13=
EXTT14=
EXTT15=
EXTT16=
EXTT17=
EXTT18=
EXTT19=
EXTT20=
EXTT21=
EXTT22=
EXTT23=
EXTT24=
EXTT25=
EXTT26=
EXTT27=
PLAYORDER=
